<svg width="50" height="50" viewBox="0 0 50 50" fill="none" xmlns="http://www.w3.org/2000/svg">
<circle cx="25" cy="25" r="25" fill="#4CB340"/>
<path d="M24.5892 9C18.1989 9 13 14.1989 13 20.5891C13 28.5196 23.3712 40.1621 23.8127 40.6538C24.2275 41.1157 24.9516 41.1149 25.3656 40.6538C25.8072 40.1621 36.1784 28.5196 36.1784 20.5891C36.1782 14.1989 30.9794 9 24.5892 9ZM24.5892 26.4199C21.3741 26.4199 18.7584 23.8042 18.7584 20.5891C18.7584 17.374 21.3741 14.7584 24.5892 14.7584C27.8043 14.7584 30.4199 17.3741 30.4199 20.5892C30.4199 23.8043 27.8043 26.4199 24.5892 26.4199Z" fill="white"/>
</svg>
