<svg width="50" height="50" viewBox="0 0 50 50" fill="none" xmlns="http://www.w3.org/2000/svg">
<circle cx="25" cy="25" r="25" fill="#4CB340"/>
<g clip-path="url(#clip0)">
<path d="M37.2924 31.0814L33.664 27.453C32.3682 26.1572 30.1652 26.6755 29.6469 28.3601C29.2581 29.5264 27.9623 30.1743 26.796 29.9151C24.2043 29.2672 20.7055 25.898 20.0576 23.1767C19.6688 22.0104 20.4464 20.7145 21.6126 20.3258C23.2972 19.8075 23.8156 17.6045 22.5197 16.3087L18.8913 12.6803C17.8547 11.7732 16.2996 11.7732 15.3925 12.6803L12.9304 15.1424C10.4683 17.7341 13.1896 24.6021 19.2801 30.6926C25.3706 36.7831 32.2386 39.634 34.8303 37.0423L37.2924 34.5802C38.1995 33.5435 38.1995 31.9885 37.2924 31.0814Z" fill="white"/>
</g>
<defs>
<clipPath id="clip0">
<rect width="26" height="26" fill="white" transform="translate(12 12)"/>
</clipPath>
</defs>
</svg>
