<svg width="50" height="50" viewBox="0 0 50 50" fill="none" xmlns="http://www.w3.org/2000/svg">
<circle cx="25" cy="25" r="25" fill="#4CB340"/>
<path d="M25.4997 24.1829C28.724 24.1829 31.338 21.008 31.338 17.0915C31.338 13.1749 30.4798 10 25.4997 10C20.5195 10 19.6611 13.1749 19.6611 17.0915C19.6611 21.008 22.2752 24.1829 25.4997 24.1829Z" fill="white"/>
<path d="M14.4723 35.0104C14.4713 34.7716 14.4703 34.9431 14.4723 35.0104V35.0104Z" fill="white"/>
<path d="M36.5269 35.1969C36.53 35.1315 36.5279 34.7433 36.5269 35.1969V35.1969Z" fill="white"/>
<path d="M36.5144 34.7244C36.4063 27.9017 35.5152 25.9576 28.6967 24.7271C28.6967 24.7271 27.7369 25.9501 25.4997 25.9501C23.2626 25.9501 22.3026 24.7271 22.3026 24.7271C15.5584 25.9442 14.6132 27.8595 14.4889 34.5027C14.4787 35.0452 14.474 35.0737 14.4722 35.0107C14.4726 35.1287 14.4731 35.3469 14.4731 35.7275C14.4731 35.7275 16.0964 39 25.4997 39C34.9028 39 36.5263 35.7275 36.5263 35.7275C36.5263 35.483 36.5265 35.313 36.5268 35.1973C36.5249 35.2362 36.5213 35.1608 36.5144 34.7244Z" fill="white"/>
</svg>
