<svg width="148" height="31" viewBox="0 0 148 31" fill="none" xmlns="http://www.w3.org/2000/svg">
<path d="M122.54 4.7H124.34C125.553 4.7 126.16 5.17333 126.16 6.12V6.14C126.16 6.67333 125.913 7.06 125.42 7.3L126.42 9.08H124.98L124.18 7.58H123.94V9.08H122.54V4.7ZM124.24 6.68C124.613 6.68 124.8 6.52667 124.8 6.22V6.2C124.8 5.90667 124.613 5.76 124.24 5.76H123.94V6.68H124.24ZM121.62 9.6C122.3 10.28 123.173 10.62 124.24 10.62C125.307 10.62 126.187 10.2733 126.88 9.58C127.6 8.88667 127.96 8.00667 127.96 6.94C127.96 5.88667 127.613 5 126.92 4.28C126.213 3.6 125.32 3.26 124.24 3.26C123.16 3.26 122.273 3.60667 121.58 4.3C120.887 4.99333 120.54 5.88 120.54 6.96C120.54 8.02667 120.9 8.90667 121.62 9.6ZM124.24 11.38C122.96 11.38 121.88 10.9533 121 10.1C120.107 9.24667 119.66 8.2 119.66 6.96C119.66 5.72 120.107 4.66667 121 3.8C121.867 2.93333 122.947 2.5 124.24 2.5C125.533 2.5 126.627 2.93333 127.52 3.8C128.4 4.65333 128.84 5.7 128.84 6.94C128.84 8.18 128.393 9.23333 127.5 10.1C126.62 10.9533 125.533 11.38 124.24 11.38Z" fill="#1A96F0"/>
<path d="M56.815 19.515C56.4183 22.805 55.625 25.29 54.435 26.97C53.2683 28.6267 51.46 29.455 49.01 29.455C48.7533 29.455 48.4967 29.4317 48.24 29.385C47.9833 29.3617 47.7617 29.3267 47.575 29.28C47.4117 29.2567 47.26 29.2217 47.12 29.175C46.98 29.1283 46.875 29.0933 46.805 29.07L46.7 29V23.435C46.7 23.4583 46.7583 23.4817 46.875 23.505C47.0617 23.5517 47.26 23.575 47.47 23.575C48.3333 23.575 49.01 23.085 49.5 22.105C49.99 21.125 50.34 19.655 50.55 17.695C50.7833 15.9217 50.9 11.3483 50.9 3.975H69.975V29H62.8V9.575H57.375C57.235 14.405 57.0483 17.7183 56.815 19.515ZM83.2758 24.765C85.6792 24.765 86.8808 23.1667 86.8808 19.97V19.69C86.8808 16.4933 85.6792 14.895 83.2758 14.895C80.8492 14.895 79.6358 16.47 79.6358 19.62V19.9C79.6358 23.1433 80.8492 24.765 83.2758 24.765ZM90.3808 26.9C88.5142 28.58 86.1342 29.42 83.2408 29.42C80.3475 29.42 77.9792 28.6033 76.1358 26.97C74.1992 25.29 73.2308 22.9917 73.2308 20.075V19.795C73.2308 16.925 74.1992 14.5917 76.1358 12.795C77.9792 11.0683 80.3592 10.205 83.2758 10.205C86.1925 10.205 88.5608 11.045 90.3808 12.725C92.2942 14.4983 93.2508 16.7967 93.2508 19.62V19.9C93.2508 22.7933 92.2942 25.1267 90.3808 26.9ZM100.778 17.24V29H95.8783V10.695H103.893L107.463 19.83L111.103 10.695H118.628V29H112.468V17.24L107.743 29H105.398L100.778 17.24Z" fill="#1A96F0"/>
<path d="M11.725 29.42C4.795 29.42 1.20167 26.6317 0.945 21.055H7.77C7.88667 22.105 8.20167 22.8633 8.715 23.33C9.32167 23.9833 10.325 24.31 11.725 24.31C12.7517 24.31 13.545 24.0883 14.105 23.645C14.665 23.2017 14.945 22.595 14.945 21.825C14.945 21.1017 14.665 20.5533 14.105 20.18C13.6383 19.9233 12.6 19.6667 10.99 19.41C7.44333 18.99 4.99333 18.185 3.64 16.995C2.24 15.8283 1.54 13.9733 1.54 11.43C1.54 9.14333 2.40333 7.27667 4.13 5.83C5.90333 4.36 8.27167 3.625 11.235 3.625C17.3717 3.625 20.6617 6.22667 21.105 11.43H14.455C14.1983 9.63333 13.125 8.735 11.235 8.735C10.2783 8.735 9.555 8.93333 9.065 9.33C8.575 9.70333 8.33 10.2167 8.33 10.87C8.33 11.57 8.59833 12.095 9.135 12.445C9.695 12.865 10.7217 13.1567 12.215 13.32C15.575 13.7167 17.9667 14.4167 19.39 15.42C21 16.68 21.805 18.57 21.805 21.09C21.805 23.47 20.93 25.43 19.18 26.97C17.3133 28.6033 14.8283 29.42 11.725 29.42ZM29.601 9.505H23.126V3.975H43.286V9.505H36.811V29H29.601V9.505Z" fill="#F0676F"/>
</svg>
